Coordinates
version=1
nRows=42
nColumns=38
inDegrees=no

Units are S.I. units (second, meters, Newtons, ...)
If the header above contains a line with 'inDegrees', this indicates whether rotational values are in degrees (yes) or radians (no).

endheader
time	pelvis_tilt	pelvis_list	pelvis_rotation	pelvis_tx	pelvis_ty	pelvis_tz	hip_flexion_r	hip_adduction_r	hip_rotation_r	knee_angle_r	ankle_angle_r	subtalar_angle_r	mtp_angle_r	hip_flexion_l	hip_adduction_l	hip_rotation_l	knee_angle_l	ankle_angle_l	subtalar_angle_l	mtp_angle_l	lumbar_extension	lumbar_bending	lumbar_rotation	arm_flex_r	arm_add_r	arm_rot_r	elbow_flex_r	pro_sup_r	wrist_flex_r	wrist_dev_r	arm_flex_l	arm_add_l	arm_rot_l	elbow_flex_l	pro_sup_l	wrist_flex_l	wrist_dev_l
0.997519	0.343599	-0.0352433	3.141	-0.138759	0.521806	0.0447724	1.77858	-0.356316	0.105265	2.06189	0.514309	0	0	1.70366	-0.195741	-0.00852277	2.05963	0.512061	0	0	-0.267127	0.0176745	-0.0501981	1.52576	-0.268992	0.855081	1.73882	1.45705	0	0	1.50487	-0.274192	0.756806	1.82903	1.51445	0	0
1.00749	0.350522	-0.0349192	3.14058	-0.138066	0.515996	0.045338	1.79854	-0.358321	0.110338	2.07076	0.514234	0	0	1.72225	-0.196106	-0.00639688	2.06945	0.512158	0	0	-0.261421	0.0190141	-0.0504529	1.52634	-0.265463	0.852331	1.73717	1.45779	0	0	1.50487	-0.271125	0.75482	1.82795	1.51862	0	0
1.01747	0.357839	-0.0348522	3.14031	-0.137314	0.510356	0.0459254	1.81842	-0.360429	0.115372	2.07814	0.514159	0	0	1.7405	-0.196227	-0.00494267	2.07776	0.512256	0	0	-0.255482	0.020164	-0.0507939	1.52691	-0.262083	0.849487	1.73546	1.45854	0	0	1.50486	-0.268097	0.752754	1.82685	1.52252	0	0
1.02744	0.365697	-0.0351097	3.1402	-0.136492	0.504897	0.0465368	1.83838	-0.362591	0.120451	2.08399	0.514085	0	0	1.75851	-0.196063	-0.00426524	2.08448	0.512354	0	0	-0.249157	0.0210452	-0.0512485	1.52747	-0.258844	0.846478	1.73367	1.45939	0	0	1.50488	-0.26508	0.750648	1.82567	1.52611	0	0
1.03742	0.374215	-0.0357211	3.14024	-0.135595	0.499622	0.0471719	1.85859	-0.364748	0.125643	2.08841	0.514012	0	0	1.77639	-0.195613	-0.00440101	2.08962	0.512452	0	0	-0.242289	0.0216136	-0.051816	1.528	-0.255726	0.843167	1.73175	1.46039	0	0	1.50493	-0.262041	0.748511	1.82434	1.52944	0	0
1.04739	0.383288	-0.0366541	3.14038	-0.134635	0.494546	0.0478257	1.87896	-0.366819	0.130942	2.09158	0.513939	0	0	1.79407	-0.194943	-0.00527993	2.09334	0.512551	0	0	-0.234944	0.021888	-0.0524397	1.52852	-0.252753	0.839606	1.72974	1.46163	0	0	1.50501	-0.258992	0.746348	1.82284	1.53255	0	0
1.05737	0.392607	-0.0378238	3.14057	-0.133631	0.489701	0.0484907	1.89909	-0.368737	0.136265	2.09369	0.513866	0	0	1.81125	-0.194155	-0.00674681	2.09586	0.51265	0	0	-0.227405	0.0219451	-0.053036	1.52902	-0.24998	0.835984	1.72775	1.46317	0	0	1.50512	-0.255977	0.744161	1.82125	1.53556	0	0
1.06734	0.401816	-0.0391212	3.14074	-0.132607	0.485118	0.0491596	1.91852	-0.37047	0.141495	2.09498	0.513794	0	0	1.82761	-0.193335	-0.00861799	2.09739	0.512748	0	0	-0.220007	0.0218932	-0.0535328	1.52949	-0.247457	0.832472	1.72589	1.46506	0	0	1.50526	-0.25304	0.741937	1.81963	1.53852	0	0
1.07732	0.410646	-0.0404364	3.14088	-0.131583	0.480819	0.0498273	1.93691	-0.372015	0.146526	2.09564	0.513723	0	0	1.84294	-0.192536	-0.0107228	2.09816	0.512847	0	0	-0.212992	0.0218455	-0.0538858	1.52994	-0.2452	0.829131	1.72423	1.46727	0	0	1.50543	-0.250211	0.739645	1.81804	1.54147	0	0
1.0873	0.418936	-0.0416689	3.14098	-0.130573	0.476814	0.05049	1.95407	-0.373387	0.151265	2.09585	0.513652	0	0	1.85715	-0.191782	-0.0129167	2.09838	0.512946	0	0	-0.206499	0.0219029	-0.054077	1.53037	-0.243196	0.825923	1.72279	1.46975	0	0	1.50561	-0.247505	0.737243	1.8165	1.54441	0	0
1.09727	0.426784	-0.0427602	3.14105	-0.129584	0.473085	0.0511426	1.97016	-0.374591	0.155685	2.09578	0.513582	0	0	1.87048	-0.191069	-0.0151219	2.09821	0.513045	0	0	-0.2004	0.0221192	-0.05412	1.53079	-0.241387	0.82264	1.72154	1.4724	0	0	1.50579	-0.244907	0.734674	1.81504	1.54728	0	0
1.10725	0.434132	-0.0436609	3.1411	-0.128631	0.469629	0.0517761	1.98511	-0.375628	0.159741	2.09552	0.513512	0	0	1.88291	-0.190417	-0.0172506	2.09781	0.513144	0	0	-0.194736	0.0225332	-0.0540324	1.53118	-0.239762	0.819347	1.7205	1.47516	0	0	1.50598	-0.242459	0.731971	1.81371	1.55	0	0
1.11722	0.440854	-0.0443476	3.14113	-0.127732	0.466453	0.0523821	1.99876	-0.376522	0.163411	2.09517	0.513442	0	0	1.89433	-0.189838	-0.0192444	2.09728	0.513242	0	0	-0.189633	0.0231556	-0.0538532	1.53155	-0.238319	0.81614	1.7197	1.47795	0	0	1.50617	-0.240205	0.729201	1.81257	1.55245	0	0
1.1272	0.446882	-0.0448419	3.14117	-0.126898	0.463562	0.0529549	2.01104	-0.377298	0.166726	2.0948	0.513372	0	0	1.90469	-0.189327	-0.0210997	2.09671	0.51334	0	0	-0.185153	0.0239471	-0.0536401	1.5319	-0.237038	0.813038	1.71912	1.48069	0	0	1.50635	-0.238165	0.726427	1.81165	1.55457	0	0
1.13717	0.45224	-0.0452025	3.14122	-0.126132	0.460951	0.0534905	2.02205	-0.377952	0.169747	2.09445	0.513303	0	0	1.91401	-0.18888	-0.0228484	2.09614	0.513438	0	0	-0.18126	0.0248233	-0.053449	1.53223	-0.235883	0.810009	1.71871	1.48329	0	0	1.50652	-0.236344	0.723711	1.81093	1.5563	0	0
1.14715	0.456741	-0.0454659	3.14126	-0.125448	0.45864	0.0539783	2.03154	-0.378472	0.172471	2.09414	0.513234	0	0	1.92205	-0.188536	-0.0244612	2.09561	0.513536	0	0	-0.178147	0.0257183	-0.0533046	1.53254	-0.234866	0.807268	1.71846	1.48575	0	0	1.50669	-0.234788	0.721178	1.81043	1.55764	0	0
1.15712	0.460175	-0.0456558	3.14126	-0.124857	0.45665	0.0544093	2.03923	-0.378867	0.174871	2.09388	0.513166	0	0	1.92853	-0.188314	-0.0258945	2.09514	0.513633	0	0	-0.176041	0.026585	-0.0532238	1.53284	-0.233997	0.804987	1.71832	1.48806	0	0	1.50683	-0.233527	0.718933	1.81012	1.55862	0	0
1.1671	0.462518	-0.0458105	3.14122	-0.124361	0.45498	0.0547782	2.04511	-0.379137	0.17696	2.09368	0.513097	0	0	1.93342	-0.188204	-0.0271386	2.09474	0.51373	0	0	-0.174964	0.0273675	-0.0532265	1.53312	-0.233263	0.803193	1.71825	1.49024	0	0	1.50697	-0.232553	0.717038	1.80996	1.55928	0	0
1.17707	0.46372	-0.045952	3.14113	-0.123964	0.453634	0.0550797	2.04909	-0.379298	0.178731	2.09353	0.513029	0	0	1.93664	-0.188188	-0.0281695	2.0944	0.513826	0	0	-0.174961	0.0280328	-0.0533251	1.53337	-0.232671	0.801974	1.7182	1.49232	0	0	1.50709	-0.23187	0.715558	1.80989	1.55968	0	0
1.18705	0.463805	-0.0460926	3.14099	-0.123667	0.452609	0.055313	2.05121	-0.379377	0.180186	2.09344	0.512961	0	0	1.93819	-0.188233	-0.028973	2.09414	0.513922	0	0	-0.175997	0.0285675	-0.0535307	1.53361	-0.232218	0.801346	1.71811	1.49431	0	0	1.5072	-0.231465	0.714533	1.80985	1.55987	0	0
1.19702	0.463011	-0.0462515	3.14084	-0.12346	0.451882	0.0554809	2.05178	-0.379384	0.181355	2.09338	0.512892	0	0	1.93836	-0.18829	-0.0295727	2.09393	0.514018	0	0	-0.177803	0.0289527	-0.0538492	1.53383	-0.231878	0.801159	1.71791	1.49622	0	0	1.50729	-0.231296	0.713943	1.80977	1.55991	0	0
1.207	0.461414	-0.0464124	3.14068	-0.123342	0.451446	0.0555861	2.05088	-0.379344	0.182216	2.09337	0.512824	0	0	1.93723	-0.188335	-0.0299437	2.09378	0.514113	0	0	-0.18028	0.0292123	-0.0542637	1.53403	-0.231667	0.801446	1.71762	1.49807	0	0	1.50736	-0.231351	0.713803	1.80961	1.55985	0	0
1.21697	0.459295	-0.0465789	3.1405	-0.1233	0.451277	0.055634	2.04887	-0.379262	0.182787	2.09339	0.512756	0	0	1.93513	-0.188334	-0.0301119	2.09368	0.514207	0	0	-0.183114	0.0293502	-0.0547586	1.53422	-0.231574	0.802041	1.71719	1.49983	0	0	1.50743	-0.23158	0.71406	1.80934	1.55972	0	0
1.22695	0.456952	-0.046759	3.14033	-0.123319	0.451348	0.0556286	2.04613	-0.379136	0.183092	2.09345	0.512688	0	0	1.93243	-0.188269	-0.0301129	2.09363	0.514301	0	0	-0.185972	0.0293616	-0.0553073	1.53438	-0.23159	0.802765	1.71664	1.50143	0	0	1.50747	-0.231926	0.714657	1.80891	1.55956	0	0
1.23692	0.454342	-0.0469225	3.14014	-0.123403	0.451667	0.0555722	2.04259	-0.37898	0.183082	2.09354	0.51262	0	0	1.92904	-0.188163	-0.0299071	2.09363	0.514395	0	0	-0.188897	0.0292889	-0.0558578	1.53453	-0.231775	0.803768	1.71604	1.50288	0	0	1.50751	-0.232394	0.715595	1.80836	1.55938	0	0
1.2469	0.451454	-0.0470504	3.13991	-0.123553	0.452242	0.0554692	2.03819	-0.378826	0.18273	2.09367	0.512552	0	0	1.92495	-0.188026	-0.0294835	2.09368	0.514487	0	0	-0.191903	0.0291647	-0.056371	1.53466	-0.232156	0.805071	1.71544	1.50412	0	0	1.50753	-0.232966	0.716836	1.80771	1.5592	0	0
1.25687	0.448123	-0.0471111	3.13963	-0.123778	0.453092	0.0553236	2.03269	-0.378715	0.181983	2.09385	0.512484	0	0	1.91995	-0.187883	-0.0288085	2.0938	0.514579	0	0	-0.19517	0.0290373	-0.0568075	1.53477	-0.232775	0.80681	1.71489	1.50515	0	0	1.50753	-0.233649	0.718368	1.80698	1.55903	0	0
1.26685	0.444419	-0.04711	3.13931	-0.124072	0.454215	0.055141	2.02622	-0.378667	0.180859	2.09409	0.512416	0	0	1.91411	-0.187741	-0.0279181	2.09398	0.514671	0	0	-0.198629	0.0289145	-0.0571442	1.53486	-0.233617	0.808875	1.7144	1.50592	0	0	1.50752	-0.234411	0.720121	1.80617	1.55887	0	0
1.27682	0.440611	-0.0470826	3.13895	-0.12442	0.455587	0.0549262	2.01915	-0.378661	0.179423	2.09439	0.512348	0	0	1.9078	-0.187604	-0.0268998	2.09423	0.514761	0	0	-0.201993	0.028766	-0.0573618	1.53493	-0.234632	0.811	1.71393	1.50641	0	0	1.5075	-0.235193	0.721998	1.80527	1.55872	0	0
1.2868	0.436744	-0.0470348	3.13854	-0.124819	0.457205	0.0546817	2.01156	-0.378673	0.177691	2.09476	0.512281	0	0	1.90104	-0.187504	-0.0257819	2.09456	0.51485	0	0	-0.205217	0.0285969	-0.0574206	1.53498	-0.235812	0.8132	1.71351	1.50665	0	0	1.50746	-0.235991	0.723959	1.80432	1.5586	0	0
1.29677	0.432973	-0.0469853	3.13808	-0.125261	0.459058	0.0544121	2.00368	-0.378677	0.175712	2.09519	0.512213	0	0	1.89404	-0.187453	-0.0246248	2.09497	0.514939	0	0	-0.208142	0.0284035	-0.0572958	1.53502	-0.237111	0.815326	1.71313	1.50667	0	0	1.5074	-0.236775	0.725936	1.80333	1.5585	0	0
1.30675	0.429378	-0.0469393	3.13757	-0.125739	0.461137	0.0541215	1.99561	-0.378648	0.173507	2.09569	0.512145	0	0	1.8869	-0.187466	-0.0234652	2.09544	0.515027	0	0	-0.210688	0.0281984	-0.0569633	1.53503	-0.238491	0.817316	1.7128	1.50652	0	0	1.50733	-0.237531	0.727885	1.8023	1.55843	0	0
1.31672	0.425933	-0.0468841	3.13699	-0.126254	0.463448	0.0538132	1.98734	-0.378575	0.171072	2.09623	0.512077	0	0	1.87959	-0.187555	-0.0223117	2.09597	0.515114	0	0	-0.212895	0.028015	-0.0564003	1.53503	-0.239927	0.819191	1.71252	1.50624	0	0	1.50725	-0.238262	0.729784	1.80126	1.55839	0	0
1.3267	0.422478	-0.0467868	3.13634	-0.126813	0.466007	0.0534898	1.97861	-0.378462	0.168363	2.09677	0.512009	0	0	1.87191	-0.187737	-0.021143	2.09649	0.5152	0	0	-0.214948	0.0279084	-0.0555847	1.535	-0.241423	0.821086	1.71234	1.5059	0	0	1.50715	-0.23899	0.731641	1.80025	1.55838	0	0
1.33667	0.418733	-0.0465991	3.13559	-0.127429	0.468847	0.0531526	1.96902	-0.378331	0.165308	2.09725	0.511941	0	0	1.8635	-0.188027	-0.0199178	2.09696	0.515285	0	0	-0.217171	0.0279485	-0.0544968	1.53496	-0.243007	0.823225	1.71233	1.50553	0	0	1.50705	-0.239751	0.733486	1.79931	1.55839	0	0
1.34665	0.414704	-0.0463113	3.13477	-0.128094	0.471968	0.0528044	1.95855	-0.378183	0.1619	2.09757	0.511874	0	0	1.85435	-0.188405	-0.0186714	2.09728	0.515368	0	0	-0.219585	0.0281577	-0.0531338	1.53489	-0.244668	0.82556	1.71252	1.50514	0	0	1.50693	-0.240523	0.735303	1.79846	1.55842	0	0
1.35663	0.410374	-0.0459134	3.13386	-0.128802	0.475375	0.0524454	1.94715	-0.378004	0.158118	2.09763	0.511806	0	0	1.84441	-0.188864	-0.0174374	2.09732	0.515451	0	0	-0.222233	0.0285473	-0.0514873	1.5348	-0.246427	0.828133	1.71296	1.5047	0	0	1.50681	-0.241294	0.737097	1.79773	1.55847	0	0
1.3666	0.405587	-0.0453808	3.13287	-0.129548	0.479087	0.0520785	1.93455	-0.377782	0.153898	2.09725	0.511739	0	0	1.83343	-0.18941	-0.0162214	2.09692	0.515532	0	0	-0.225312	0.0291435	-0.0495433	1.53468	-0.248352	0.831146	1.71377	1.50425	0	0	1.50669	-0.24208	0.738908	1.79718	1.55853	0	0
1.37658	0.400199	-0.0446968	3.13179	-0.13032	0.483127	0.0517098	1.92048	-0.377519	0.149169	2.09624	0.511671	0	0	1.82119	-0.190039	-0.0150393	2.09587	0.515613	0	0	-0.229016	0.0299696	-0.0472998	1.53455	-0.2505	0.834745	1.71501	1.50379	0	0	1.50658	-0.242887	0.740772	1.79688	1.5586	0	0
1.38655	0.394233	-0.0438703	3.13065	-0.131099	0.487504	0.051344	1.90488	-0.377205	0.143887	2.09438	0.511604	0	0	1.80762	-0.190729	-0.0139476	2.09395	0.515692	0	0	-0.233378	0.0310211	-0.0447709	1.5344	-0.252897	0.838899	1.71671	1.50332	0	0	1.50648	-0.243696	0.742703	1.79682	1.55868	0	0
1.39653	0.387909	-0.0429378	3.12946	-0.13186	0.49221	0.0509829	1.88798	-0.376814	0.138046	2.09141	0.511537	0	0	1.79291	-0.191446	-0.013045	2.09089	0.51577	0	0	-0.238229	0.0322541	-0.0419853	1.53422	-0.255533	0.843397	1.71879	1.50282	0	0	1.50641	-0.244454	0.744702	1.79696	1.55876	0	0
1.4065	0.381542	-0.0419496	3.12828	-0.132574	0.497226	0.0506257	1.87011	-0.376312	0.131661	2.08707	0.511469	0	0	1.77736	-0.192156	-0.0124466	2.08644	0.515847	0	0	-0.243303	0.0335957	-0.0389839	1.53404	-0.258384	0.847947	1.72114	1.5023	0	0	1.50637	-0.245104	0.746766	1.79721	1.55885	0	0
